<svg xmlns="http://www.w3.org/2000/svg" width="512" height="512" viewBox="336 -168 681 681"><path fill="#f50" fill-rule="evenodd" d="m643 108-17 23-61 83-29 42 2 13 16 81q1 7-5-1l-34-57 4-40 4-49c-1-1 0-2-10 18l-41 85 8 18a373 373 0 0 0 22-55l3-4 1 27v28l7 12 32 59q2 4-19-12c-39-30-80-62-81-61l15 39 27 68c0 3-4-1-26-23-13-14-24-24-25-24l29 57 16 30c1 2 3 2 17 1 13-2 14-2 14-1q-1 2-11 6l-11 5a750 750 0 0 0 81 69l-12-24-68-136q0-4 13 8l49 44 36-70q34-69 37-71l1 5-15 138 25-45 57-102q4-8 6-9c2 0 2-1-10 37l-39 130 23-7 23-8c3 0 2 2-27 42l-48 69 41-31 47-38c4-3 8-9 21-33l31-60q5-7 2-6l-49 31q-5 1 13-17c12-14 13-16 13-19l2-54q-2 0-16 29c-12 25-16 32-26 46q-14 21-14 16l5-18 52-183q0-4-5 2l-70 75q-3 4-12 31-13 39-12 25l-6-104a479 479 0 0 0-44 55l-27 34-1-1 12-37 44-130v58l15-66 9-47zm37 57-8 32c-17 66-16 62-14 60l15-24 14-23-3-22zm-44 260-28 50 13-9 12-10 4-19 5-19q-1-1-6 7m-59 35-3 8-2 7q-4 3 9 16l10 10z"/><path fill="#2962ff" fill-rule="evenodd" d="m611 212-24 78q2 0 5-6l14-20 9-14 1-24-1-23zm-113 88-12 30c0 2 1 4 18 19l19 17-1-3-18-32c-4-6-4-7-5-20zm98 75-40 76-11-9c-16-15-28-26-29-25l23 46 30 57-2-11-14-44q-1-4 9 6l8 7c2-2 44-136 44-138 0-1-9 15-18 35m76-29-26 50q8-10 9-9l-1 12q-4 25 2 3zm-5 108-11 4-7 16-7 17q-18 36 1 8l33-49z"/></svg>
